# xmcd
#
# Track frame offsets:
#	182
#	23895
#	44430
#	69487
#	91837
#	123380
#	142995
#	162172
#	197400
#	221350
#	239845
#	268647
#	287700
#	307857
#	332080
#
# Disc length: 4679 seconds
#
# Revision: 4
# Processed by: cddbd v1.4PL0 Copyright (c) Steve Scherf et al.
# Submitted via: audiograbber 1.82.02
#
DISCID=d412450f,e912450f
DTITLE=Various Artist - Smooth Groove After Hours (2000)
DYEAR=2000
DGENRE=R&B
TTITLE0=Keni Burke - Risin' To The Top
TTITLE1=Juicy - Sugar Free
TTITLE2=Tease - Firestarter
TTITLE3=Atlantic Starr - Silver Shadow
TTITLE4=Loose Ends - Slow Down (12'')
TTITLE5=Midnight Star - Curious
TTITLE6=Bernard Wright - Who Do You Love
TTITLE7=Joyce Sims - Come Into My Life
TTITLE8=Eugene Wilde - Gotta Get You Home Tonight
TTITLE9=Dennis Edwards - Don't Look Any Further
TTITLE10=Odyssey - Inside Out (12'')
TTITLE11=Eugene WIlde - Don't Say No (Tonight)
TTITLE12=Real To Reel - Can You Treat Me Like She Does
TTITLE13=Bryan Loron - Lollipop Luv
TTITLE14=Roger Troutman - I Want To Be Your Man
EXTD=
EXTT0=
EXTT1=
EXTT2=
EXTT3=
EXTT4=
EXTT5=
EXTT6=
EXTT7=
EXTT8=
EXTT9=
EXTT10=
EXTT11=
EXTT12=
EXTT13=
EXTT14=
PLAYORDER=
